<?xml version="1.0" encoding="UTF-8" standalone="no"?>
<!-- Created with Inkscape (http://www.inkscape.org/) -->

<svg
   width="39.720058mm"
   height="22.264242mm"
   viewBox="0 0 39.720058 22.264242"
   version="1.1"
   id="svg1"
   xml:space="preserve"
   xmlns:inkscape="http://www.inkscape.org/namespaces/inkscape"
   xmlns:sodipodi="http://sodipodi.sourceforge.net/DTD/sodipodi-0.dtd"
   xmlns="http://www.w3.org/2000/svg"
   xmlns:svg="http://www.w3.org/2000/svg"><sodipodi:namedview
     id="namedview1"
     pagecolor="#505050"
     bordercolor="#eeeeee"
     borderopacity="1"
     inkscape:showpageshadow="0"
     inkscape:pageopacity="0"
     inkscape:pagecheckerboard="0"
     inkscape:deskcolor="#505050"
     inkscape:document-units="mm" /><defs
     id="defs1" /><g
     inkscape:label="Layer 1"
     inkscape:groupmode="layer"
     id="layer1"
     transform="translate(-4.7111727,-178.17739)"><g
       id="g147"
       transform="matrix(0.26458333,0,0,0.26458333,-61.327685,137.02102)"
       inkscape:export-filename="habit-builder-icon.svg"
       inkscape:export-xdpi="96"
       inkscape:export-ydpi="96">
		<linearGradient
   id="SVGID_73_"
   gradientUnits="userSpaceOnUse"
   x1="249.9507"
   y1="197.6082"
   x2="399.7876"
   y2="197.6082"
   gradientTransform="translate(17.806007,673.42638)">
			<stop
   offset="0"
   style="stop-color:#FFF200"
   id="stop145" />
			<stop
   offset="1"
   style="stop-color:#EC008C"
   id="stop146" />
		</linearGradient>
		<path
   fill="url(#SVGID_73_)"
   d="m 360,155.6 c -8.5,-0.4 -16.5,1.7 -23.2,5.7 -4.9,2.8 -5.7,9.5 -1.7,13.5 v 0 c 2.7,2.7 7,3.4 10.3,1.4 4.2,-2.5 9.1,-3.7 14.4,-3.3 12.1,0.9 21.8,10.8 22.6,22.9 0.9,14.3 -10.4,26.2 -24.5,26.2 -13.5,0 -24.4,-10.9 -24.6,-24.3 -0.1,-24 -20.5,-43.2 -44.9,-41.5 -20.6,1.5 -37.2,18.2 -38.7,38.7 -1.7,24.4 17.6,44.8 41.7,44.8 7.7,0 15,-2.1 21.2,-5.7 4.8,-2.8 5.6,-9.5 1.7,-13.5 v 0 c -2.7,-2.7 -7,-3.4 -10.3,-1.4 -4.2,2.5 -9.1,3.7 -14.4,3.3 -12.1,-0.9 -21.8,-10.8 -22.6,-22.9 -0.9,-14.3 10.4,-26.2 24.5,-26.2 13.5,0 24.4,10.9 24.6,24.3 0.1,23 18.8,41.6 41.8,41.6 23.5,0 42.5,-19.4 41.8,-43.1 C 399,174.4 381.6,156.7 360,155.6 Z"
   id="path146"
   style="fill:url(#SVGID_73_)" />
		<circle
   fill="#ec008c"
   cx="341"
   cy="169"
   r="8.5"
   id="circle146" />
		<circle
   fill="#fff200"
   cx="308.20001"
   cy="226.39999"
   r="8.6000004"
   id="circle147" />
	</g></g></svg>
