<?xml version="1.0" encoding="UTF-8" standalone="no"?>
<svg
   width="39.72mm"
   height="22.264mm"
   version="1.1"
   viewBox="0 0 39.72 22.264"
   xml:space="preserve"
   id="svg13"
   sodipodi:docname="HomeIcon.svg"
   inkscape:version="1.3.2 (091e20e, 2023-11-25, custom)"
   inkscape:export-filename="..\..\..\..\..\..\..\Pictures\HabitBuilderLogo.png"
   inkscape:export-xdpi="654.82379"
   inkscape:export-ydpi="654.82379"
   xmlns:inkscape="http://www.inkscape.org/namespaces/inkscape"
   xmlns:sodipodi="http://sodipodi.sourceforge.net/DTD/sodipodi-0.dtd"
   xmlns:xlink="http://www.w3.org/1999/xlink"
   xmlns="http://www.w3.org/2000/svg"
   xmlns:svg="http://www.w3.org/2000/svg"><defs
     id="defs13"><linearGradient
   id="linearGradient1"
   inkscape:collect="always"><stop
     style="stop-color:#0071ff;stop-opacity:1"
     offset="0"
     id="stop1" /><stop
     style="stop-color:#d80086;stop-opacity:1"
     offset="1"
     id="stop2" /></linearGradient><linearGradient
   inkscape:collect="always"
   xlink:href="#linearGradient1"
   id="linearGradient2"
   x1="-1.3786519"
   y1="27.378023"
   x2="43.223736"
   y2="27.378023"
   gradientUnits="userSpaceOnUse" />
		<linearGradient
   id="SVGID_73_"
   x1="249.95"
   x2="399.79001"
   y1="197.61"
   y2="197.61"
   gradientTransform="matrix(0.26458,0,0,0.26458,-60.265548,137.01611)"
   gradientUnits="userSpaceOnUse">
			<stop
   stop-color="#FFF200"
   offset="0"
   id="stop10"
   style="stop-color:#0071ff;stop-opacity:1;" />
			<stop
   stop-color="#EC008C"
   offset="0.54330707"
   id="stop11"
   style="stop-color:#d80086;stop-opacity:1;" />
		</linearGradient>
		
		
		
	</defs><sodipodi:namedview
     id="namedview13"
     pagecolor="#ffffff"
     bordercolor="#000000"
     borderopacity="0.25"
     inkscape:showpageshadow="2"
     inkscape:pageopacity="0.0"
     inkscape:pagecheckerboard="0"
     inkscape:deskcolor="#d1d1d1"
     inkscape:document-units="mm"
     showgrid="false"
     inkscape:zoom="1.0091736"
     inkscape:cx="-101.0728"
     inkscape:cy="128.32282"
     inkscape:window-width="1920"
     inkscape:window-height="1017"
     inkscape:window-x="-8"
     inkscape:window-y="-8"
     inkscape:window-maximized="1"
     inkscape:current-layer="svg13" /><g
     id="g2"
     transform="translate(-1.0625409)"><path
       d="m 30.273536,0.008648 c -2.24893,-0.105832 -4.36557,0.449786 -6.138256,1.508106 -1.296442,0.740824 -1.508106,2.51351 -0.449786,3.57183 0.714366,0.714366 1.85206,0.899572 2.725174,0.370412 1.111236,-0.66145 2.407678,-0.978946 3.809952,-0.873114 3.201418,0.238122 5.767844,2.857464 5.979508,6.058882 0.238122,3.783494 -2.751632,6.931996 -6.48221,6.931996 -3.57183,0 -6.455752,-2.883922 -6.508668,-6.429294 C 23.182792,4.797546 17.78536,-0.28239 11.329608,0.167396 5.87926,0.564266 1.487232,4.982752 1.090362,10.406642 0.640576,16.862394 5.74697,22.259826 12.123348,22.259826 c 2.037266,0 3.9687,-0.555618 5.609096,-1.508106 1.269984,-0.740824 1.481648,-2.51351 0.449786,-3.57183 -0.714366,-0.714366 -1.85206,-0.899572 -2.725174,-0.370412 -1.111236,0.66145 -2.407678,0.978946 -3.809952,0.873114 C 8.445686,17.44447 5.87926,14.825128 5.667596,11.62371 5.429474,7.840216 8.419228,4.691714 12.149806,4.691714 c 3.57183,0 6.455752,2.883922 6.508668,6.429294 0.02646,6.08534 4.974104,11.006528 11.059444,11.006528 6.21763,0 11.24465,-5.132852 11.059444,-11.403398 C 40.592156,4.982752 35.988464,0.299686 30.273536,0.008648 Z"
       fill="url(#SVGID_73_)"
       id="path11"
       style="fill:url(#SVGID_73_);stroke-width:0.26458" /><circle
       cx="25.246515"
       cy="3.5540199"
       r="2.24893"
       fill="#ec008c"
       id="circle11"
       style="stroke-width:0.26458" /><circle
       cx="16.568295"
       cy="18.74091"
       r="2.275388"
       fill="#fff200"
       id="circle12"
       style="fill:#0071ff;fill-opacity:1;stroke-width:0.26458" /></g><text
     xml:space="preserve"
     style="font-style:italic;font-weight:bold;font-size:6.35px;line-height:0.65;font-family:'Source Serif Pro';-inkscape-font-specification:'Source Serif Pro Bold Italic';text-align:center;text-anchor:middle;fill:url(#linearGradient2);stroke-width:0.165;stroke-linecap:round;stroke-linejoin:round"
     x="19.780626"
     y="29.822773"
     id="text11"><tspan
       sodipodi:role="line"
       id="tspan11"
       style="font-style:normal;font-variant:normal;font-weight:normal;font-stretch:normal;font-family:'Titan One';-inkscape-font-specification:'Titan One';fill:url(#linearGradient2);stroke-width:0.165"
       x="19.780626"
       y="29.822773">Habit Builder</tspan></text><g
     id="g6"
     inkscape:export-filename="..\..\..\..\..\..\..\Pictures\g6.png"
     inkscape:export-xdpi="654.82379"
     inkscape:export-ydpi="654.82379"><g
       id="g5"
       transform="translate(-2.373432,49.813863)"
       style="fill:#ffffff"><path
         d="m 30.273536,0.008648 c -2.24893,-0.105832 -4.36557,0.449786 -6.138256,1.508106 -1.296442,0.740824 -1.508106,2.51351 -0.449786,3.57183 0.714366,0.714366 1.85206,0.899572 2.725174,0.370412 1.111236,-0.66145 2.407678,-0.978946 3.809952,-0.873114 3.201418,0.238122 5.767844,2.857464 5.979508,6.058882 0.238122,3.783494 -2.751632,6.931996 -6.48221,6.931996 -3.57183,0 -6.455752,-2.883922 -6.508668,-6.429294 C 23.182792,4.797546 17.78536,-0.28239 11.329608,0.167396 5.87926,0.564266 1.487232,4.982752 1.090362,10.406642 0.640576,16.862394 5.74697,22.259826 12.123348,22.259826 c 2.037266,0 3.9687,-0.555618 5.609096,-1.508106 1.269984,-0.740824 1.481648,-2.51351 0.449786,-3.57183 -0.714366,-0.714366 -1.85206,-0.899572 -2.725174,-0.370412 -1.111236,0.66145 -2.407678,0.978946 -3.809952,0.873114 C 8.445686,17.44447 5.87926,14.825128 5.667596,11.62371 5.429474,7.840216 8.419228,4.691714 12.149806,4.691714 c 3.57183,0 6.455752,2.883922 6.508668,6.429294 0.02646,6.08534 4.974104,11.006528 11.059444,11.006528 6.21763,0 11.24465,-5.132852 11.059444,-11.403398 C 40.592156,4.982752 35.988464,0.299686 30.273536,0.008648 Z"
         fill="url(#SVGID_73_)"
         id="path4"
         style="fill:#ffffff;stroke-width:0.26458" /><circle
         cx="25.246515"
         cy="3.5540199"
         r="2.24893"
         fill="#ec008c"
         id="circle4"
         style="fill:#ffffff;stroke-width:0.26458" /><circle
         cx="16.568295"
         cy="18.74091"
         r="2.275388"
         fill="#fff200"
         id="circle5"
         style="fill:#ffffff;fill-opacity:1;stroke-width:0.26458" /></g><text
       xml:space="preserve"
       style="font-style:italic;font-weight:bold;font-size:8.25363px;line-height:0.65;font-family:'Source Serif Pro';-inkscape-font-specification:'Source Serif Pro Bold Italic';text-align:center;text-anchor:middle;fill:#ffffff;stroke-width:0.165;stroke-linecap:round;stroke-linejoin:round"
       x="18.445942"
       y="80.369537"
       id="text5"><tspan
         sodipodi:role="line"
         id="tspan5"
         style="font-style:normal;font-variant:normal;font-weight:normal;font-stretch:normal;font-family:'Titan One';-inkscape-font-specification:'Titan One';fill:#ffffff;stroke-width:0.165"
         x="18.445942"
         y="80.369537">Habit Builder</tspan></text></g><path
     style="fill:#ffffff;stroke-width:1"
     d="m -104.25158,113.803 c -1.67966,-0.55222 -2.70243,-1.29744 -4.33876,-3.1613 -0.93975,-1.07043 -4.71768,-5.40198 -8.3954,-9.62567 -3.67773,-4.223705 -7.12111,-8.163255 -7.65197,-8.754565 -4.43874,-4.94421 -4.90755,-5.80871 -4.73046,-8.72303 0.11401,-1.876412 0.83104,-4.095037 5.12267,-15.851201 2.89078,-7.91877 5.31846,-14.100408 5.77067,-14.693895 1.61104,-2.114424 2.65214,-2.476856 10.23193,-3.561984 2.95659,-0.423267 9.646313,-1.396015 14.866053,-2.161663 5.219751,-0.765646 10.096791,-1.392086 10.837884,-1.392086 1.45373,0 3.083604,0.566745 4.235404,1.472752 1.569501,1.234569 21.793084,24.253956 22.319727,25.405311 1.195993,2.614699 1.020066,3.333223 -4.56971,18.663716 -6.390006,17.525185 -6.109962,17.119135 -12.517496,18.149935 -3.039953,0.48906 -12.186852,1.9228 -18.12349,2.84079 -1.68948,0.26124 -4.177615,0.66961 -5.529201,0.90747 -3.309301,0.58242 -6.589471,0.79393 -7.527851,0.48542 z"
     id="path6"
     sodipodi:nodetypes="sssssscssssssssss"
     inkscape:export-filename="..\..\..\..\..\..\..\Pictures\path6.png"
     inkscape:export-xdpi="253.22"
     inkscape:export-ydpi="253.22" /></svg>
